<?xml version="1.0" standalone="no"?>
<!DOCTYPE svg PUBLIC "-//W3C//DTD SVG 20010904//EN"
 "http://www.w3.org/TR/2001/REC-SVG-20010904/DTD/svg10.dtd">
<svg version="1.0" xmlns="http://www.w3.org/2000/svg"
 width="840.000000pt" height="460.000000pt" viewBox="0 0 840.000000 460.000000"
 preserveAspectRatio="xMidYMid meet">

<g transform="translate(0.000000,460.000000) scale(0.100000,-0.100000)"
fill="#000000" stroke="none">
<path d="M4000 4359 c-202 -26 -411 -89 -605 -184 -543 -263 -936 -747 -1094
-1345 -27 -105 -64 -310 -56 -318 2 -2 15 4 29 13 19 12 27 29 32 63 36 266
150 575 294 803 251 395 617 686 1045 828 823 274 1715 -40 2210 -779 175
-261 287 -555 330 -868 18 -136 19 -406 2 -550 -13 -100 -13 -103 9 -123 l22
-20 11 63 c61 354 18 777 -114 1114 -120 308 -272 534 -514 766 -306 293 -689
479 -1101 534 -113 15 -394 17 -500 3z"/>
<path d="M4114 4196 c-44 -20 -61 -70 -40 -121 12 -28 26 -41 71 -60 30 -14
55 -31 55 -39 0 -49 -43 -63 -62 -21 -9 20 -19 25 -46 25 -34 0 -34 -1 -28
-32 8 -43 57 -88 97 -88 67 0 109 45 109 118 0 52 -20 76 -85 102 -39 16 -55
27 -53 39 5 26 37 25 62 -3 17 -17 30 -23 46 -19 19 5 21 11 16 37 -13 62 -79
91 -142 62z"/>
<path d="M4392 4183 c-17 -7 -42 -57 -42 -86 0 -33 34 -73 81 -97 42 -22 50
-47 24 -74 -21 -21 -45 -9 -52 25 -5 25 -10 29 -39 29 -29 0 -34 -3 -34 -25 0
-109 149 -146 199 -48 16 31 14 85 -4 111 -9 12 -36 33 -60 48 -44 25 -56 46
-35 59 18 11 48 -5 54 -30 5 -20 13 -25 36 -25 27 0 30 3 30 31 0 48 -47 89
-102 88 -24 0 -49 -3 -56 -6z"/>
<path d="M3800 4145 c-47 -25 -55 -55 -41 -148 16 -105 32 -142 70 -161 38
-20 62 -20 105 0 42 21 72 71 62 107 -7 30 -13 32 -50 17 -16 -6 -26 -17 -26
-29 0 -29 -32 -44 -57 -26 -29 20 -52 151 -30 172 17 18 57 9 57 -13 0 -8 9
-14 19 -14 58 0 67 35 22 81 -33 33 -87 39 -131 14z"/>
<path d="M4902 4011 c-15 -16 -47 -77 -71 -135 -38 -92 -42 -109 -30 -121 37
-36 50 -24 100 90 41 94 51 110 73 113 43 5 41 -27 -9 -138 -25 -57 -45 -108
-45 -114 0 -6 13 -17 29 -23 33 -12 27 -21 92 134 50 119 50 151 4 192 -49 43
-106 43 -143 2z"/>
<path d="M3259 3913 c-13 -9 -25 -17 -27 -18 -1 -1 20 -42 49 -91 28 -49 62
-109 75 -134 41 -80 34 -78 123 -26 45 27 81 50 81 51 0 15 -25 55 -34 55 -6
0 -29 -12 -51 -25 -22 -14 -43 -25 -47 -25 -4 0 -35 49 -68 110 -34 60 -65
112 -69 115 -4 2 -19 -3 -32 -12z"/>
<path d="M5190 3877 c-14 -7 -48 -46 -77 -87 -40 -58 -52 -84 -53 -113 0 -82
81 -139 153 -106 24 11 120 147 132 186 8 29 -18 88 -47 107 -35 23 -79 28
-108 13z m62 -74 c27 -24 22 -53 -20 -108 -30 -40 -44 -50 -67 -50 -24 0 -31
5 -33 23 -4 25 37 101 70 132 26 24 27 24 50 3z"/>
<path d="M3061 3764 c-13 -9 -29 -32 -37 -50 -9 -21 -21 -34 -33 -34 -49 0
-96 -93 -73 -145 6 -12 48 -64 93 -114 l83 -91 23 22 c13 12 23 26 23 31 0 5
-36 48 -80 95 -44 48 -79 93 -78 101 2 8 11 19 21 25 16 10 31 -2 107 -84 l89
-95 27 27 27 26 -82 89 c-63 68 -81 94 -79 113 6 52 39 36 127 -60 l84 -92 25
25 25 26 -84 91 c-46 50 -91 96 -100 101 -27 14 -82 11 -108 -7z"/>
<path d="M4010 3743 c-370 -64 -717 -291 -929 -606 -50 -76 -111 -180 -111
-191 0 -12 116 7 175 29 33 12 115 50 182 83 113 57 240 102 288 102 11 0 59
32 105 70 193 160 404 290 562 347 87 31 233 43 294 23 100 -32 191 -122 220
-217 8 -26 19 -123 25 -217 7 -102 17 -182 25 -198 8 -15 14 -36 14 -48 0 -12
7 -20 18 -21 9 0 41 -30 71 -66 47 -56 67 -72 137 -105 128 -60 472 -168 537
-168 22 0 21 10 -3 104 -125 491 -492 886 -960 1034 -52 16 -137 37 -189 46
-118 20 -344 20 -461 -1z"/>
<path d="M5337 3607 l-109 -122 53 -47 c58 -53 103 -67 142 -46 27 15 118 111
135 145 25 46 15 81 -39 139 -29 30 -57 54 -63 54 -6 0 -60 -55 -119 -123z
m149 -2 c16 -24 15 -26 -37 -85 -53 -61 -84 -75 -107 -47 -8 9 5 30 54 85 36
40 67 72 70 72 2 0 11 -11 20 -25z"/>
<path d="M4422 3495 c-133 -30 -346 -151 -551 -314 l-96 -77 -38 -155 c-34
-139 -71 -320 -153 -750 l-27 -145 18 -119 c21 -132 45 -191 91 -217 142 -82
1015 -24 1759 117 365 69 434 94 489 173 55 80 70 181 41 278 -26 88 -66 112
-278 160 -410 93 -646 183 -741 284 -60 63 -65 62 -191 -20 -125 -82 -175 -99
-175 -60 0 25 -1 25 -60 -5 -27 -14 -56 -25 -64 -25 -18 0 -30 34 -27 79 1 29
-1 32 -16 26 -59 -24 -73 -28 -79 -22 -6 6 7 62 32 138 4 11 -2 18 -15 22 -27
7 -28 47 -2 103 30 66 112 118 235 149 57 14 70 14 77 3 14 -22 11 -26 -46
-47 -104 -39 -205 -99 -205 -122 0 -16 19 -10 152 51 71 34 146 64 167 68 l36
8 -3 90 c-7 190 -33 260 -116 309 -56 33 -129 40 -214 20z m-240 -935 c49 -14
94 -53 110 -95 16 -46 51 -48 73 -5 24 46 58 64 106 56 26 -4 46 -2 55 5 8 6
27 9 44 6 16 -4 43 -2 59 4 39 14 81 -5 101 -47 14 -29 17 -30 54 -21 35 9 68
3 123 -19 7 -3 32 15 57 40 46 47 70 55 109 34 40 -21 47 -39 43 -122 -3 -65
-1 -84 16 -112 23 -40 18 -80 -16 -122 -22 -25 -23 -32 -14 -105 10 -85 2
-111 -45 -141 -19 -13 -84 -20 -137 -16 -8 1 -34 -2 -57 -6 -26 -4 -54 -2 -72
5 -26 11 -33 10 -67 -13 -22 -13 -49 -36 -61 -49 -13 -14 -31 -27 -42 -30 -26
-6 -63 13 -77 42 -11 21 -18 23 -80 22 -38 -1 -94 -4 -125 -7 -48 -5 -58 -10
-73 -35 -20 -34 -58 -56 -113 -65 -57 -9 -113 10 -153 51 -32 34 -35 41 -35
100 0 47 5 68 19 83 14 17 16 27 9 49 l-10 28 -84 -3 c-46 -2 -95 -5 -109 -8
-32 -6 -70 27 -70 61 0 14 -8 29 -20 35 -25 13 -50 61 -50 94 0 43 49 88 106
97 27 4 62 11 77 15 34 8 63 -15 72 -58 8 -34 24 -43 60 -34 l26 7 -21 29
c-42 59 -38 149 8 195 55 56 128 76 204 55z"/>
<path d="M4080 2510 c-79 -19 -115 -109 -66 -167 20 -23 26 -25 40 -14 14 12
14 16 -4 51 -19 37 -19 38 0 58 26 27 74 37 111 22 52 -22 48 -90 -7 -90 -18
0 -23 6 -26 33 -3 34 -29 46 -58 28 -12 -8 -12 -14 -1 -34 14 -26 12 -148 -3
-179 -15 -32 22 -34 55 -2 30 29 36 53 18 71 -6 6 -9 19 -6 29 4 18 4 18 11
-1 26 -67 71 -147 93 -165 14 -11 44 -25 66 -32 34 -10 44 -9 75 8 46 25 60
47 43 67 -11 14 -17 14 -53 1 -22 -8 -49 -14 -58 -14 -27 0 -74 43 -100 94
l-24 44 32 30 c43 41 44 91 3 133 -16 16 -38 29 -48 29 -10 0 -27 2 -38 4 -11
3 -36 1 -55 -4z"/>
<path d="M4529 2461 c-20 -16 -21 -21 -10 -35 13 -16 21 -155 11 -186 -4 -12
3 -15 35 -13 22 2 63 3 92 2 55 0 72 11 48 31 -8 7 -15 24 -15 39 0 50 -13
101 -25 101 -6 0 -20 -9 -30 -20 -16 -18 -16 -20 -1 -36 21 -21 17 -73 -6 -88
-30 -18 -41 8 -49 116 -4 57 -8 104 -8 106 -2 7 -22 0 -42 -17z"/>
<path d="M4626 2464 c-8 -21 -8 -20 9 -38 26 -26 62 3 49 39 -8 20 -50 19 -58
-1z"/>
<path d="M5016 2467 c-10 -7 -16 -21 -14 -31 2 -13 -7 -21 -32 -30 -44 -14
-62 -56 -37 -84 15 -17 15 -19 0 -35 -26 -25 -1 -45 60 -49 52 -3 63 -14 33
-33 -11 -7 -26 -4 -50 9 -35 19 -56 15 -56 -9 0 -34 88 -47 140 -20 34 17 45
46 30 75 -9 16 -21 20 -60 20 -55 0 -67 15 -20 25 17 4 38 18 47 31 15 24 15
27 -6 54 -26 36 -26 40 -1 40 22 0 26 20 8 38 -15 15 -20 15 -42 -1z m3 -101
c10 -12 8 -17 -9 -26 -28 -15 -57 5 -39 26 15 18 33 18 48 0z"/>
<path d="M4418 2448 c-20 -20 -20 -22 -3 -34 15 -11 17 -25 13 -104 l-4 -90
36 0 c44 0 55 8 36 29 -8 9 -16 51 -19 101 -8 124 -17 140 -59 98z"/>
<path d="M4752 2394 c-22 -15 -30 -44 -13 -44 5 0 11 -14 15 -32 4 -22 1 -37
-11 -50 -24 -26 -4 -42 41 -34 41 8 41 7 20 48 -12 24 -13 36 -5 54 25 56 57
10 45 -66 -8 -47 2 -51 42 -17 23 20 25 26 15 44 -6 12 -11 31 -11 42 0 56
-40 87 -80 61 -9 -5 -19 -5 -25 0 -7 6 -20 4 -33 -6z"/>
<path d="M4275 2358 c-31 -28 -36 -84 -11 -122 13 -20 25 -26 55 -26 40 0 63
18 76 58 10 33 -12 87 -41 101 -36 16 -49 14 -79 -11z m64 -32 c7 -8 11 -27 9
-43 -2 -22 -8 -28 -28 -28 -20 0 -26 6 -28 28 -3 27 12 57 28 57 4 0 13 -6 19
-14z"/>
<path d="M3830 2309 c-8 -5 -31 -9 -51 -9 -21 0 -47 -8 -60 -19 -20 -16 -22
-23 -14 -47 8 -23 17 -29 40 -30 29 0 30 -1 28 -47 -1 -26 2 -47 6 -47 16 0
52 48 42 55 -6 3 -11 28 -11 56 0 38 4 49 16 49 8 0 13 -4 10 -9 -3 -5 -2 -31
3 -57 6 -30 6 -53 0 -58 -16 -17 -10 -26 16 -26 24 0 25 2 19 35 -5 28 -3 35
10 35 12 0 16 -9 16 -35 0 -36 10 -44 28 -22 6 7 8 27 3 47 -5 28 -12 36 -34
38 -21 3 -27 9 -27 28 0 13 -5 24 -11 24 -6 0 -8 8 -4 19 7 23 -5 33 -25 20z
m-50 -59 c0 -15 -7 -20 -25 -20 -24 0 -34 18 -18 33 15 15 43 7 43 -13z"/>
<path d="M3958 2205 c-25 -54 36 -103 73 -58 13 15 11 16 -18 10 -19 -4 -33
-2 -33 3 0 6 11 10 24 10 30 0 40 24 20 45 -23 23 -53 18 -66 -10z"/>
<path d="M4130 2153 c-59 -9 -70 -15 -84 -41 -12 -23 -12 -33 -3 -52 12 -24
24 -32 102 -67 53 -24 67 -62 38 -101 -26 -35 -74 -41 -102 -13 -28 28 -26 39
9 59 45 26 36 62 -16 62 -28 0 -64 -47 -64 -83 0 -104 143 -140 215 -55 23 27
26 39 22 76 -6 54 -29 79 -99 107 -38 15 -53 27 -53 40 0 28 33 31 66 6 31
-23 49 -21 49 7 0 23 -28 62 -43 61 -7 -1 -23 -3 -37 -6z"/>
<path d="M4973 2123 c-67 -8 -68 -75 -2 -94 22 -7 39 -18 39 -27 0 -10 -6 -12
-22 -7 -72 22 -85 14 -53 -31 12 -18 20 -20 54 -14 50 9 71 25 71 55 0 27 -15
41 -53 50 -15 4 -27 13 -27 21 0 16 16 19 25 4 8 -13 45 -13 45 1 0 19 -21 49
-33 47 -7 0 -27 -3 -44 -5z"/>
<path d="M4815 2110 c-33 -13 -48 -38 -48 -82 0 -54 40 -93 86 -84 36 7 57 23
57 43 0 11 -9 13 -44 8 -28 -5 -46 -3 -50 4 -5 7 2 11 18 11 68 0 95 36 59 78
-22 25 -51 33 -78 22z m45 -45 c10 -12 10 -15 -3 -15 -8 0 -22 -3 -31 -6 -10
-4 -16 -1 -16 9 0 14 12 24 31 26 4 1 12 -6 19 -14z"/>
<path d="M4585 2080 c-17 -19 -19 -37 -5 -42 6 -2 11 -41 11 -91 1 -96 8 -105
49 -62 21 22 22 29 12 45 -7 11 -12 42 -12 69 0 42 3 51 21 56 28 9 41 -6 37
-41 -2 -21 -9 -30 -26 -32 -35 -5 -26 -46 10 -50 57 -7 87 99 42 149 -22 24
-117 24 -139 -1z"/>
<path d="M4289 2061 c-67 -67 0 -185 80 -140 14 8 27 23 29 33 3 16 -1 17 -35
11 -48 -8 -69 11 -59 51 6 24 10 26 46 20 36 -6 40 -4 40 14 0 13 -10 24 -26
30 -37 14 -43 13 -75 -19z"/>
<path d="M4423 2064 c-26 -40 -22 -90 9 -121 54 -54 140 1 124 80 -9 46 -33
67 -77 67 -31 0 -42 -5 -56 -26z m88 -35 c22 -42 -18 -88 -49 -57 -13 13 -16
60 -5 71 13 14 43 6 54 -14z"/>
<path d="M5552 3402 c-72 -53 -132 -102 -132 -107 0 -6 20 -39 45 -73 41 -56
48 -61 66 -52 32 18 33 38 3 77 l-27 36 22 19 c29 23 38 23 53 -2 16 -25 30
-25 52 -1 16 18 16 21 2 44 -13 19 -14 26 -4 34 30 23 37 21 63 -17 15 -22 30
-40 34 -40 3 0 17 9 30 19 l24 18 -33 49 c-19 27 -41 59 -50 71 l-17 21 -131
-96z"/>
<path d="M2736 3403 l-59 -86 22 -19 c30 -24 35 -23 51 7 7 14 17 25 22 25 5
0 54 -34 108 -75 54 -41 102 -75 106 -75 10 0 33 33 34 46 0 7 -42 43 -92 80
-51 37 -97 71 -103 76 -6 5 -2 20 9 40 19 31 19 31 -4 50 -12 10 -25 18 -29
18 -3 0 -33 -39 -65 -87z"/>
<path d="M2615 3200 c-8 -16 -15 -31 -15 -34 0 -3 25 -20 55 -37 58 -33 60
-35 45 -59 -8 -13 -17 -11 -62 13 -30 15 -57 27 -60 27 -4 0 -15 -14 -24 -31
-13 -26 -14 -33 -2 -40 41 -27 267 -149 276 -149 5 0 15 14 22 30 15 37 7 49
-50 75 -41 18 -47 29 -31 54 7 11 19 8 64 -18 l55 -31 16 26 c10 14 16 32 14
40 -3 13 -259 163 -280 164 -4 0 -14 -13 -23 -30z"/>
<path d="M5555 3134 c-18 -18 -16 -33 7 -47 21 -14 48 -2 48 22 0 30 -34 45
-55 25z"/>
<path d="M5656 3048 c-41 -41 -48 -86 -19 -128 47 -68 92 -67 235 3 l107 52
-17 37 -17 38 -104 -50 c-102 -49 -135 -59 -145 -41 -3 5 3 19 13 33 18 23 18
25 1 58 l-18 34 -36 -36z"/>
<path d="M3590 3039 c-19 -6 -109 -46 -200 -89 -159 -77 -254 -110 -312 -110
-44 0 -132 -38 -204 -86 -83 -58 -122 -74 -176 -74 -53 0 -104 -14 -142 -39
l-28 -19 84 5 c70 5 96 2 150 -16 76 -25 90 -22 175 38 62 45 102 57 132 41
28 -14 27 -55 -1 -75 -104 -73 -195 -125 -217 -125 -14 0 -54 13 -89 30 -100
47 -135 54 -195 36 -29 -9 -74 -34 -102 -56 -167 -134 -225 -165 -327 -177
-27 -3 -48 -9 -48 -13 0 -9 102 -30 146 -30 64 0 159 40 239 101 105 79 137
80 261 13 45 -24 90 -44 100 -44 11 0 43 18 73 40 29 22 63 41 75 42 44 3 72
-4 91 -23 19 -19 19 -20 1 -54 -25 -46 -94 -91 -162 -105 -47 -10 -59 -9 -98
9 -25 11 -66 36 -92 55 -101 78 -149 71 -282 -36 -112 -91 -164 -114 -272
-122 -67 -5 -100 -14 -157 -41 -40 -19 -73 -36 -73 -39 0 -3 37 -2 83 1 58 4
106 0 166 -12 46 -9 97 -14 113 -11 15 3 68 33 117 66 86 58 154 90 193 90 59
0 120 -71 99 -116 -21 -47 -64 -61 -278 -89 -67 -8 -148 -24 -180 -34 l-58
-19 62 -1 c34 -1 108 -10 165 -20 107 -21 145 -25 189 -23 30 2 106 51 229
147 103 80 149 105 193 105 27 0 36 -5 45 -25 44 -96 -34 -190 -170 -205 -44
-5 -130 -29 -218 -60 -109 -39 -164 -53 -223 -57 -43 -3 -74 -9 -70 -13 17
-16 114 -41 160 -42 29 -1 95 13 171 37 111 34 127 36 167 26 24 -6 66 -11 94
-11 43 0 55 5 101 43 191 156 210 164 236 101 20 -49 8 -82 -43 -114 -23 -14
-61 -37 -85 -52 -35 -22 -67 -30 -166 -42 -117 -15 -183 -35 -234 -70 -20 -15
-17 -15 43 -10 53 5 76 2 135 -19 143 -50 176 -46 282 37 61 48 154 96 187 96
39 1 47 14 36 56 -6 21 -14 73 -20 114 -8 68 -5 95 30 285 56 300 95 489 135
652 19 79 34 147 34 153 0 12 -22 12 -70 -1z"/>
<path d="M4575 2938 c-96 -65 -210 -166 -200 -176 4 -4 188 136 242 183 52 47
31 43 -42 -7z"/>
<path d="M4700 2898 c-30 -12 -91 -43 -136 -69 -80 -47 -81 -49 -97 -105 -9
-32 -15 -59 -14 -61 2 -2 46 18 98 45 109 54 213 131 234 171 24 47 2 52 -85
19z"/>
<path d="M5913 2836 c-38 -17 -49 -36 -58 -99 -5 -30 -14 -51 -25 -57 -44 -24
-69 26 -30 58 16 13 19 24 14 50 -8 38 -11 39 -55 9 -59 -40 -64 -114 -9 -168
22 -23 38 -29 70 -29 56 0 96 41 105 108 4 26 8 53 11 60 5 17 24 11 38 -11 8
-13 6 -22 -11 -38 -18 -18 -19 -26 -11 -50 13 -36 22 -36 59 0 23 24 29 38 29
73 0 78 -61 123 -127 94z"/>
<path d="M5960 1895 c-33 -40 -107 -75 -201 -96 -114 -26 -126 -37 -154 -147
-35 -135 31 -273 159 -340 73 -37 198 -43 278 -12 75 28 149 98 184 173 38 84
37 185 -1 261 -34 67 -74 107 -140 139 -67 33 -110 40 -125 22z"/>
<path d="M2322 1674 c30 -101 104 -280 155 -374 330 -615 912 -1011 1582
-1079 589 -60 1200 171 1617 612 81 85 244 292 244 310 0 4 -13 7 -28 7 -25 0
-40 -15 -106 -104 -90 -121 -275 -306 -393 -393 -238 -177 -485 -288 -776
-349 -167 -35 -458 -44 -627 -20 -443 65 -811 254 -1131 582 -197 203 -332
414 -436 683 -38 99 -91 187 -115 190 -3 1 3 -29 14 -65z"/>
<path d="M5280 1705 c-36 -7 -134 -23 -219 -36 l-154 -23 -25 -55 c-65 -142
-9 -316 130 -398 173 -103 388 -33 477 156 21 45 26 70 25 131 0 86 -21 143
-74 203 -36 42 -51 44 -160 22z"/>
<path d="M3487 1651 c-99 -63 -152 -174 -145 -300 6 -91 31 -150 91 -211 66
-68 135 -95 237 -95 78 0 90 3 148 34 70 38 120 92 154 167 33 72 32 199 -2
269 l-25 50 -120 6 c-155 7 -195 19 -238 69 -19 22 -38 40 -44 40 -5 0 -30
-13 -56 -29z"/>
<path d="M4595 1609 c-27 -4 -132 -12 -232 -20 l-182 -13 -27 -60 c-84 -185
25 -395 226 -435 248 -50 459 216 352 444 -28 59 -53 88 -76 90 -6 1 -33 -2
-61 -6z"/>
<path d="M3176 1513 c-17 -9 -49 -18 -73 -21 -24 -2 -43 -7 -43 -10 0 -2 26
-41 57 -84 l57 -80 12 79 c6 43 15 90 19 106 4 15 6 27 4 26 -2 -1 -17 -8 -33
-16z"/>
<path d="M2915 1305 c-90 -64 -143 -83 -132 -47 3 9 9 26 12 38 4 13 -1 29
-13 44 -18 22 -22 23 -37 10 -76 -63 -33 -190 64 -190 28 0 58 15 134 65 54
36 100 72 103 80 5 13 -23 65 -35 65 -3 -1 -46 -30 -96 -65z"/>
<path d="M3045 1211 c-16 -10 -66 -55 -109 -99 l-79 -81 17 -25 c9 -14 20 -26
23 -26 4 0 28 20 53 45 l46 45 28 -29 28 -29 -46 -42 c-52 -48 -55 -59 -26
-85 21 -19 22 -18 120 80 54 54 101 109 105 123 7 30 -21 90 -55 113 -40 29
-72 32 -105 10z m66 -71 c21 -12 25 -50 7 -68 -18 -18 -31 -14 -51 13 -15 20
-15 28 -5 45 15 23 21 24 49 10z"/>
<path d="M4760 1149 c-14 -23 -47 -61 -73 -85 -191 -172 -477 -143 -638 65
l-26 33 -22 -35 c-12 -20 -48 -60 -81 -90 -52 -49 -86 -70 -170 -104 l-25 -11
30 -12 c72 -28 203 -60 307 -76 207 -30 453 -3 658 73 90 33 270 122 270 133
0 3 -29 20 -65 38 -35 19 -80 51 -100 73 -19 21 -36 39 -37 39 -2 0 -14 -19
-28 -41z"/>
<path d="M3266 1045 c-9 -20 -39 -94 -68 -166 -56 -139 -56 -130 -7 -160 6 -4
269 212 269 221 0 3 -12 13 -26 23 l-25 18 -70 -62 c-38 -34 -72 -60 -74 -57
-3 3 11 41 30 85 19 45 35 85 35 90 0 4 -12 16 -25 26 -24 18 -25 17 -39 -18z"/>
<path d="M4990 903 c-47 -29 -86 -59 -87 -66 -2 -6 4 -21 12 -32 15 -18 17
-18 44 -2 34 20 28 26 106 -108 32 -55 59 -102 61 -104 6 -7 54 21 54 31 0 5
-29 60 -65 121 -65 111 -65 112 -45 129 11 9 25 18 31 20 7 2 5 15 -7 34 l-19
31 -85 -54z"/>
<path d="M3508 878 c-21 -7 -40 -35 -88 -128 -33 -65 -60 -125 -60 -132 0 -8
13 -19 29 -24 28 -11 29 -10 57 47 15 33 29 59 31 59 8 0 63 -31 63 -35 0 -2
-11 -30 -25 -62 -24 -54 -25 -58 -9 -70 10 -7 24 -13 32 -13 13 0 113 198 125
247 2 12 -3 35 -14 52 -32 52 -91 77 -141 59z m63 -78 c21 -12 24 -32 9 -60
-10 -18 -12 -18 -40 -2 -33 19 -35 24 -20 53 12 22 23 24 51 9z"/>
<path d="M4708 778 c-27 -11 -48 -24 -48 -28 0 -7 82 -234 105 -293 6 -14 14
-17 34 -12 42 10 44 20 22 78 l-20 56 32 20 c102 63 66 202 -51 201 -15 -1
-48 -10 -74 -22z m112 -81 c0 -50 -43 -63 -58 -18 -12 35 -8 41 30 41 23 0 28
-4 28 -23z"/>
<path d="M3742 757 c-28 -30 -38 -78 -21 -108 7 -13 31 -41 53 -61 35 -31 39
-39 30 -55 -6 -10 -22 -18 -35 -18 -19 0 -25 6 -27 28 -2 19 -11 31 -28 38
-40 15 -44 12 -44 -32 0 -51 13 -75 50 -94 49 -25 88 -19 126 19 28 28 34 41
34 77 0 39 -5 48 -50 90 -57 53 -63 72 -22 67 19 -2 28 -9 30 -26 4 -23 45
-47 63 -36 13 7 11 48 -3 79 -25 55 -117 74 -156 32z"/>
<path d="M4552 743 c-19 -4 -23 -9 -18 -26 2 -12 17 -87 31 -167 15 -80 28
-146 30 -148 8 -9 76 12 72 22 -2 6 -17 82 -33 169 -30 166 -26 160 -82 150z"/>
<path d="M4015 698 c-22 -20 -28 -38 -41 -123 -18 -116 -12 -144 38 -176 46
-28 114 -21 145 16 25 28 31 75 11 75 -7 0 -23 3 -35 6 -17 5 -23 2 -23 -9 0
-33 -61 -44 -73 -14 -8 22 14 152 28 166 12 12 17 12 39 -3 14 -9 25 -22 23
-29 -1 -7 11 -13 31 -15 31 -3 32 -2 32 33 0 82 -111 128 -175 73z"/>
<path d="M4283 713 c-39 -5 -38 3 -23 -180 15 -177 13 -170 53 -165 l35 4 -5
66 c-6 74 -2 73 47 -15 21 -39 27 -43 62 -43 21 0 38 2 38 5 0 2 -13 27 -30
55 -33 57 -37 82 -15 100 21 18 29 73 15 115 -19 57 -64 72 -177 58z m111 -85
c15 -25 -3 -52 -38 -56 -24 -3 -26 -1 -26 38 0 39 2 41 26 38 15 -2 32 -11 38
-20z"/>
</g>
</svg>
